<?xml version="1.0" standalone="no"?>
<!DOCTYPE svg PUBLIC "-//W3C//DTD SVG 20010904//EN"
 "http://www.w3.org/TR/2001/REC-SVG-20010904/DTD/svg10.dtd">
<svg version="1.0" xmlns="http://www.w3.org/2000/svg"
 width="700.000000pt" height="700.000000pt" viewBox="0 0 700.000000 700.000000"
 preserveAspectRatio="xMidYMid meet">
<metadata>
Created by potrace 1.11, written by Peter Selinger 2001-2013
</metadata>
<g transform="translate(0.000000,700.000000) scale(0.100000,-0.100000)"
fill="#000000" stroke="none">
<path d="M2080 5890 c-140 -38 -263 -69 -272 -69 -22 -1 -32 -19 -20 -34 11
-13 447 -769 495 -857 16 -30 33 -59 37 -65 7 -9 541 -933 629 -1088 24 -42
29 -58 19 -61 -22 -7 -113 -32 -293 -80 -93 -25 -314 -84 -490 -131 -176 -47
-327 -88 -335 -90 -8 -2 -82 -22 -165 -44 l-150 -40 -35 27 c-19 14 -89 69
-156 122 -67 52 -136 106 -154 120 -18 14 -77 60 -132 103 l-98 78 -43 -11
c-23 -6 -55 -16 -72 -21 -16 -5 -91 -25 -165 -45 -74 -20 -137 -38 -138 -39
-2 -2 21 -46 51 -97 30 -51 66 -114 81 -140 30 -54 192 -335 205 -358 5 -8 52
-89 105 -180 289 -503 303 -525 328 -524 12 0 185 45 383 98 198 54 367 99
375 101 8 2 125 34 260 70 135 36 252 68 261 70 9 2 187 49 395 105 208 56
386 103 394 105 8 2 40 10 71 19 31 9 65 18 75 21 17 3 275 72 474 127 41 11
80 21 85 22 22 6 79 21 250 67 99 26 215 57 258 68 42 12 112 30 155 42 603
161 899 240 916 244 12 2 95 24 186 50 91 25 174 47 185 49 121 26 235 86 299
157 225 250 103 641 -225 719 -57 14 -205 8 -237 -9 -10 -5 -30 -12 -43 -15
-13 -2 -152 -38 -309 -80 -157 -42 -294 -79 -305 -81 -11 -3 -60 -16 -110 -30
-49 -14 -99 -27 -110 -30 -11 -2 -160 -42 -332 -87 l-312 -84 -59 56 c-33 30
-113 104 -179 165 -103 95 -163 152 -309 290 -18 17 -76 71 -130 120 -53 50
-119 110 -145 135 -26 25 -71 67 -101 94 -29 28 -85 79 -123 115 -39 36 -128
120 -199 186 -72 66 -159 148 -195 181 -36 34 -82 77 -103 95 -20 19 -89 84
-155 145 -65 61 -147 137 -182 170 -36 32 -79 74 -97 92 -19 17 -35 32 -36 31
-2 0 -118 -31 -258 -69z"/>
<path d="M730 1167 l0 -292 2770 0 2770 0 0 292 0 292 -2770 1 -2770 0 0 -293z"/>
</g>
</svg>
